HIERARCHY
ROOT base
{
	OFFSET 0.0 0.0 0.0
	CHANNELS 6 Xposition Yposition Zposition Zrotation Yrotation Xrotation
	JOINT root
	{
		OFFSET 0 0 0
		CHANNELS 6 Xposition Yposition Zposition Zrotation Yrotation Xrotation
		JOINT chest
		{
			OFFSET 0 4.72302 0
			CHANNELS 3 Zrotation Yrotation Xrotation
			JOINT neck
			{
				OFFSET 0 4.47788 0
				CHANNELS 3 Zrotation Yrotation Xrotation
				End Site
				{
					OFFSET 0.0 0.0 0.0
				}
			}
			JOINT right_shoulder
			{
				OFFSET -0.481 4.87 3.6622
				CHANNELS 3 Zrotation Yrotation Xrotation
				JOINT right_elbow
				{
					OFFSET 0 -5.49576 0
					CHANNELS 3 Zrotation Yrotation Xrotation
					JOINT right_wrist
					{
						OFFSET 0 -5.17894 0
						CHANNELS 3 Zrotation Yrotation Xrotation
						End Site
						{
							OFFSET 0.0 0.0 0.0
						}
					}
				}
			}
			JOINT left_shoulder
			{
				OFFSET -0.481 4.87 -3.6622
				CHANNELS 3 Zrotation Yrotation Xrotation
				JOINT left_elbow
				{
					OFFSET 0 -5.49576 0
					CHANNELS 3 Zrotation Yrotation Xrotation
					JOINT left_wrist
					{
						OFFSET 0 -5.17894 0
						CHANNELS 3 Zrotation Yrotation Xrotation
						End Site
						{
							OFFSET 0.0 0.0 0.0
						}
					}
				}
			}
		}
		JOINT right_hip
		{
			OFFSET 0 0 1.69774
			CHANNELS 3 Zrotation Yrotation Xrotation
			JOINT right_knee
			{
				OFFSET 0 -8.43092 0
				CHANNELS 3 Zrotation Yrotation Xrotation
				JOINT right_ankle
				{
					OFFSET 0 -8.1974 0
					CHANNELS 3 Zrotation Yrotation Xrotation
					End Site
					{
						OFFSET 0.0 0.0 0.0
					}
				}
			}
		}
		JOINT left_hip
		{
			OFFSET 0 0 -1.69774
			CHANNELS 3 Zrotation Yrotation Xrotation
			JOINT left_knee
			{
				OFFSET 0 -8.43092 0
				CHANNELS 3 Zrotation Yrotation Xrotation
				JOINT left_ankle
				{
					OFFSET 0 -8.1974 0
					CHANNELS 3 Zrotation Yrotation Xrotation
					End Site
					{
						OFFSET 0.0 0.0 0.0
					}
				}
			}
		}
	}
	JOINT red_arrow
	{
		OFFSET 0 0 0
		CHANNELS 3 Zrotation Yrotation Xrotation
		End Site
		{
			OFFSET 0.0 0.0 0.0
		}
	}
	JOINT blue_arrow
	{
		OFFSET 0 0 0
		CHANNELS 3 Zrotation Yrotation Xrotation
		End Site
		{
			OFFSET 0.0 0.0 0.0
		}
	}
}
MOTION
Frames: 17
Frame Time: 0.0333333333333333
0 18.08466 0 0 0 0 0 0 0 0 -90 0 0 0 0 0 0 0 0 0 -90 0 0 0 0 0 0 0 0 90 0 0 0 0 0 0 0 0 0 0 0 0 0 0 0 0 0 0 0 0 0 0 0 0 0 0 0 0 0 0
0.546837258338928 0 0.0352808015421033 0 1.18057214888091 0 0 17.0029292821884 0 -7.38760168233565 3.51600380802412E-15 1.6675990482806 -4.00869098445196 -4.67108610948016 -0.379162864419075 1.76710953147732 -0.0563520512429912 0.169941838962902 -12.2515523925704 5.39376527511246 -2.64847077829738 8.47327484467665 0 0 0 0 0 9.43845975756243 -20.1112069350724 17.605004291325 37.3749317420932 0 0 0 0 0 30.1848795650636 -6.07152932116174 1.34411335770452 -13.8041700437535 0 0 -6.86726488624565 8.30926070675307 0.43054905184496 -3.70275845009794 6.07490704714526 -2.50050220565385 -29.4845367034489 0 0 -0.466287045571102 -2.38604759124827 3.47237490150713 0 0 0 0 0 0
1.19405410885811 0 0.0134944558143616 0 1.06733070106853 0 0 17.0006811857224 0 -9.02772983316179 -2.1249593354548 1.04467868719312 -6.2903212155363 -3.49719135963713 -0.298680504591353 -1.79907952171581 -0.531129971876549 -0.360304684693075 -8.05483004813329 5.49866842179395 -3.20656267299983 2.01391478739388 0 0 0 0 0 9.53734014768426 -22.4006896836459 15.7503358342723 38.4936415960604 0 0 0 0 0 29.3016803408073 -5.16769855684807 3.19955684759516 -13.59506294854 0 0 -7.71198407684059 11.1127778307938 -5.61095362220023 -2.59321913366087 5.44663278550528 -2.18882378924751 -30.9490112237697 0 0 -9.11964938465147 -3.24956903964613 4.66673525603183 0 0 0 0 0 0
1.85788683593273 0 0.0741749184671789 0 0.927490173515858 0 0 17.1605723142624 0 -9.85477495412485 -2.61782065145271 -0.0296377866566878 -8.74835283383793 -2.95996933815335 -0.996016726059955 -2.92181001233168 -0.543987970159121 -0.286155629209531 -6.28815694017417 2.72579076113587 -1.18764716706091 2.29729848228406 0 0 0 0 0 10.0433361592223 -19.7123433793409 12.3306361885248 38.845717357207 0 0 0 0 0 26.0669792725751 -4.26718490823175 4.80693066181192 -10.2849577625868 0 0 -7.00473137062827 10.5815127779561 -5.43433525563923 2.34515921615649 4.71344324743025 -0.829464041406823 -40.6434436373219 0 0 -23.8535421888542 -1.69392737922626 5.73161337632341 0 0 0 0 0 0
2.58001736700535 0 0.0670978038571775 0 0.763063639848249 0 0 17.30726531744 0 -9.92253208534767 -3.07746316403103 -1.03571054544161 -9.56189915437435 -2.49808366375663 -1.06237764196181 -3.56363672509399 -0.453303302633004 -0.448139091541665 -3.70109435577308 4.30398679076315 -3.15220786767496 3.57459551038204 0 0 0 0 0 8.94249017175305 -15.5426686227322 8.79253415974259 36.9104037464514 0 0 0 0 0 21.2595346248027 -3.46448900138498 6.02514403791742 -5.57008799692392 0 0 -6.83503343607872 10.4813574189926 -5.13198021036633 8.88197234103749 3.52937611925325 0.447025916173953 -53.1217006471258 0 0 -28.5961079687639 -1.63700644724588 5.22682400086442 0 0 0 0 0 0
3.34894403219223 0 0.0704235404729843 0 0.642585468344213 0 0 17.4125857591629 0 -9.47741192535078 -2.25787316205532 -1.92394074371529 -8.43866144432665 -1.93259877686429 -1.05311940422356 -3.62850283424667 -0.359226989353638 -0.553421809186965 -2.08756117953693 4.96016644301681 -4.99615795271153 9.90341741913435 0 0 0 0 0 5.81839272237033 -9.70493258123238 6.5114196974648 32.4238949523856 0 0 0 0 0 15.7062982889249 -3.53129039800597 6.70278384376928 -0.804027297453128 0 0 -6.443082692153 10.2310589702284 -4.86196064215416 18.0722043056617 2.84614094052873 3.08497253916921 -68.7093944463888 0 0 -23.4242825961586 -1.53771807959702 3.68860995165711 0 0 0 0 0 0
4.16574011147022 0 0.0441640604287386 0 0.51897298636294 0 0 17.4712845444679 0 -8.48552287291315 -2.32295536819622 -2.41727500423497 -6.25951694281054 -0.728453009842773 -0.985569398721796 -2.2770861278974 -0.112933997350122 -0.697665340854995 -0.245551341414378 7.33149412364182 -7.75114355763918 16.6269361097844 0 0 0 0 0 0.190855247845405 -2.5672072872553 6.4982608954521 26.3936455851337 0 0 0 0 0 11.4418001885126 -3.58790083235655 7.05390190118553 0.00200506176999958 0 0 -3.99618923677713 10.8229577817113 -4.58583489334814 27.3935603984912 2.81804921830903 6.54317768442702 -81.015715104216 0 0 -13.4662059529532 -1.07379918704886 3.34265641364183 0 0 0 0 0 0
5.0669656932354 0 -0.0512987483292818 0 0.399463710648724 0 0 17.5178752064705 0 -6.4116815706964 -2.25648827674155 -2.17898192087152 -4.39552065198572 0.105206118844596 -0.851482642587573 -0.508457468475996 0.111287791008597 -0.80294640193716 1.044912784759 9.30718237851709 -10.1746092687521 24.6185084481513 0 0 0 0 0 -3.96052914627195 2.78481321655698 7.72754551042041 19.7693849110495 0 0 0 0 0 6.24244443538487 -4.0697877172171 6.34038567649641 -6.20190942090118E-06 0 0 -0.827169719901061 11.875291078579 -3.9996756044872 33.4028911929662 2.19983892265311 8.67124454538569 -86.7945264250995 0 0 -4.50995461592308 -0.376803062363772 4.39500252390315 0 0 0 0 0 0
5.90627622008324 0 -0.225470344349742 0 0.267499613431653 0 0 17.540511405468 0 -4.56057725069368 -2.49938932051967 -1.3157692361652 -3.45804937657553 0.306176814721064 -0.75702015064371 0.902822934009187 0.182719081468169 -0.560939108970188 2.51426947211494 13.5378687218013 -14.3471571825841 33.3433101316556 0 0 0 0 0 -6.00630945196367 6.67913698171776 9.10899642043044 13.9794574572918 0 0 0 0 0 1.86296052425557 -4.53302974811739 4.71596708270257 -0.528399068922083 0 0 2.40448665329931 13.0308366981586 -3.07363746986483 37.0549174211238 1.46221767315203 8.97776521677748 -86.1817081923876 0 0 1.62985298793412 0.499323167646932 5.11389657815486 0 0 0 0 0 0
6.67158916145563 0 -0.378318142145872 0 0.146265024310265 0 0 17.5299314618111 0 -3.51911715724426 -2.29911839896798 -0.586335892245111 -2.71827993964867 0.243503481564375 -0.811924575202944 1.31409511164472 0.144224786210918 -0.207456044369716 3.30929154154389 17.0517746511341 -17.9978660433248 41.2905767404239 0 0 0 0 0 -7.11125191774542 10.6121762470243 10.9300963399184 8.12093782879425 0 0 0 0 0 -1.59801462529683 -6.65149486499166 3.31075752415739 -0.954340070930392 0 0 5.2080929053206 15.0385406744887 -2.1305135692677 39.8163208706322 1.52193137533613 8.88591386568964 -79.7716166374657 0 0 7.35896921993411 1.76231638339926 6.38852805050053 0 0 0 0 0 0
7.31972989886999 0 -0.485237879771739 0 0.0969567219606662 0 0 17.4658294677734 0 -3.69246506153326 -0.934913263693719 -0.346282999186084 -2.30039936763067 0.250271953160215 -0.946094092984456 1.5934408312233 0.0899964728932087 0.155529080595285 3.34436323166434 20.1788517992771 -21.0895057502041 47.6129754965921 0 0 0 0 0 -7.13253951821983 14.3358948350102 13.0277277847174 1.5959386930923 0 0 0 0 0 -4.27745442149519 -9.17039841991752 2.79974361234702 0.000974969900261315 0 0 7.33240613331608 16.1391354361432 -1.21103181526719 43.548631902983 2.37826255007509 8.48365742295219 -69.3473819261922 0 0 12.2187954705116 2.82036917597633 8.5151107510941 0 0 0 0 0 0
7.9028098076582 0 -0.562360595539212 0 0.0843700948003511 0 0 17.3667605280876 0 -4.63755692240476 -0.23836298398092 -0.540591405087639 -2.14207719224454 1.22202239909982 -1.31058479675367 1.57935209415396 0.440626463085169 0.421395517856727 2.93548523337554 23.0698266443257 -23.5883038139906 51.2725942689795 0 0 0 0 0 -8.48778889104392 18.5133135220511 14.3073449823392 -4.24592736360711E-05 0 0 0 0 0 -5.48299592043109 -10.4979166397997 2.79093132913283 0.00344184129563619 0 0 9.73025695347163 16.7255000589018 -0.393311545413603 46.8750405548894 4.7260072649228 8.67741486566437 -56.7057741121983 0 0 15.1941566290214 3.29986517631765 10.1782196710378 0 0 0 0 0 0
8.51812673658132 0 -0.657766060344875 0 0.0880285893232425 0 0 17.2513199329376 0 -5.7820602204818 0.0691577432626924 -0.832072100555928 -1.39612147961265 2.15501720044026 -1.45765795423005 1.33749824814183 0.870352184383444 0.402638028418388 2.13724676127487 24.855063578783 -25.4892957732664 54.2282493492758 0 0 0 0 0 -10.2056647247124 22.2373932946024 14.8627075667124 -3.84049529014059E-05 0 0 0 0 0 -6.5652224512311 -11.4591270236441 2.81008451161516 0.000600448208173669 0 0 11.9204873814684 17.2341888260038 0.450966578523379 48.7866512727057 6.77993892953372 8.62399959914772 -45.4851803248364 0 0 16.3089713400345 3.78747962978533 10.6050364937189 0 0 0 0 0 0
9.19630426764488 0 -0.812111278250813 0 0.106841613610936 0 0 17.1272034168243 0 -6.61562375595676 0.355067418264078 -0.787892910033125 -0.339311541338803 2.50732369457578 -1.22016567576834 0.506005316386016 1.09540931045837 0.11649782043577 1.38248113023463 25.8645983343243 -27.042004641953 58.0528035297407 0 0 0 0 0 -11.366664468688 24.4380149746658 14.7723446375678 -2.5279604721897E-05 0 0 0 0 0 -8.07947197830034 -12.8832889795211 2.30631488656739 0.000868350955809847 0 0 13.9687635817856 18.0593257941215 1.56790311558793 48.5288064353004 7.89526593059725 7.74082799241879 -36.5220835864741 0 0 15.058217936518 4.08596545599926 9.54840136539597 0 0 0 0 0 0
9.8970209479332 0 -1.0030087435618 0 0.158320267846926 0 0 17.0125861525536 0 -7.41096517448986 0.969925481720064 -0.479454411167066 0.30027047060547 2.18788337112183 -1.02320741941044 -0.648124252713665 1.167088271994 -0.208834390085205 1.10731286376922 25.9170859196603 -27.5027198272555 61.9458815830537 0 0 0 0 0 -11.8576601642776 25.4162133585434 14.1933118421718 -2.48811847282812E-05 0 0 0 0 0 -9.60118857520417 -13.7997718618603 1.4835125139278 0.000910683829622878 0 0 15.2181884308213 17.937943838062 2.38165567568161 46.9790616713247 8.34991292172781 6.17664261429077 -29.5780898045106 0 0 12.0972716411386 3.82795584727611 7.61321045562984 0 0 0 0 0 0
10.6010048598051 0 -1.20936811850406 0 0.259308400172252 0 0 16.9117448687553 0 -8.30465406391672 1.89866916400601 -0.131152759069503 0.131495827830295 1.40985416506614 -1.01588743120599 -2.14403883959568 1.16565798764562 -0.582168881931897 1.3598639216384 25.3255989517342 -27.0514044289046 64.4494054610519 0 0 0 0 0 -12.0905889755523 24.8320269346484 12.9541753063845 -2.19100544585962E-05 0 0 0 0 0 -11.0146766024918 -14.2559628937171 0.679226856597529 0.00086234614022278 0 0 15.3886720976206 17.0273310775218 2.71341884066361 44.8236748708371 8.31685918488643 4.25973652532894 -24.3721281568634 0 0 8.35415316972882 2.98547831439213 5.30508797894062 0 0 0 0 0 0
11.3047668397427 0 -1.41629608552903 0 0.405225179290624 0 0 16.823752117157 0 -9.36142793632975 2.73555189029243 0.0669787567830195 -0.777446691406885 0.785454759143837 -1.24432111235893 -3.86116569628162 1.11349353826702 -0.956835579472188 1.96737330254329 24.4674568988332 -26.3084911174645 64.8834298318603 0 0 0 0 0 -12.0289849403871 22.8802433800323 11.2147428785758 -0.000202163531740211 0 0 0 0 0 -11.2057434897578 -13.3869211058403 -0.165682789051256 -2.0724294449002 0 0 15.3648370333996 14.9490420855316 2.41163832459635 42.4715424416871 8.26656686279754 2.49705142692443 -20.6626233903255 0 0 4.31899082987129 1.72618171447019 2.98502372877938 0 0 0 0 0 0
